<svg width="46" height="46" viewBox="0 0 46 46" fill="none" xmlns="http://www.w3.org/2000/svg">
<g clip-path="url(#clip0_9_409)">
<g clip-path="url(#clip1_9_409)">
<rect x="-1" width="48" height="46" fill="#219653"/>
<mask id="mask0_9_409" style="mask-type:alpha" maskUnits="userSpaceOnUse" x="8" y="14" width="30" height="37">
<path d="M8.24958 16.2231C8.11649 15.0376 9.04416 14 10.2371 14H35.7629C36.9558 14 37.8835 15.0376 37.7504 16.2231L34.0456 49.2231C33.932 50.235 33.0763 51 32.0581 51H13.9419C12.9237 51 12.068 50.235 11.9544 49.2231L8.24958 16.2231Z" fill="#FFFDFA"/>
</mask>
<g mask="url(#mask0_9_409)">
<rect x="7" y="14" width="33" height="32" fill="white"/>
<rect x="7" y="10" width="33" height="34" fill="#FFCD9F" fill-opacity="0.29"/>
<rect x="6" y="24" width="33" height="22" fill="url(#paint0_linear_9_409)"/>
</g>
</g>
</g>
<defs>
<linearGradient id="paint0_linear_9_409" x1="22.5" y1="24" x2="22.5" y2="46" gradientUnits="userSpaceOnUse">
<stop stop-color="#DE9A69"/>
<stop offset="1" stop-color="#AC5B20"/>
</linearGradient>
<clipPath id="clip0_9_409">
<rect width="46" height="46" fill="white"/>
</clipPath>
<clipPath id="clip1_9_409">
<rect width="46" height="46" rx="23" fill="white"/>
</clipPath>
</defs>
</svg>
