
<svg width="375" height="410" viewBox="0 0 375 410" fill="none" xmlns="http://www.w3.org/2000/svg">
<g clip-path="url(#clip0_9_638)">
<path fill-rule="evenodd" clip-rule="evenodd" d="M-370 46.4197C-370.647 48.1571 -371 50.0373 -371 52L-371 166C-371 167.963 -370.647 169.843 -370 171.58V46.4197ZM-6.00003 328H246V182H138V202C138 210.836 130.837 218 122 218H97.9893C97.7275 224.119 92.6837 229 86.5 229H69.5C63.3162 229 58.2724 224.119 58.0107 218H34C25.1634 218 18 210.836 18 202V182H-6.00003V170L18 170H138L270 170C272.209 170 274 168.209 274 166V52C274 49.7909 272.209 48 270 48H258H-6.00003V36H246V25C246 22.7909 244.209 21 242 21H-6.00003V9L242 9C250.836 9 258 16.1634 258 25V36H270C278.836 36 286 43.1634 286 52V166C286 174.837 278.836 182 270 182H258V328H270C278.836 328 286 335.163 286 344V392C286 400.836 278.836 408 270 408H-6.00003V396H270C272.209 396 274 394.209 274 392V344C274 341.791 272.209 340 270 340H-6.00003V328ZM126 202V182H30V202C30 204.209 31.7908 206 34 206H69.5H86.5H122C124.209 206 126 204.209 126 202ZM-370 338.42C-370.647 340.157 -371 342.037 -371 344V392C-371 393.963 -370.647 395.843 -370 397.58V338.42ZM195 60C186.163 60 179 67.1634 179 76V93C179 101.837 186.163 109 195 109H246C254.836 109 262 101.837 262 93V76C262 67.1634 254.836 60 246 60H195ZM-207 147C-215.837 147 -223 154.163 -223 163V202C-223 210.837 -215.837 218 -207 218H-190.719C-189.315 225.403 -182.811 231 -175 231H-151C-143.189 231 -136.685 225.403 -135.281 218H-119C-110.164 218 -103 210.837 -103 202V163C-103 154.163 -110.164 147 -119 147H-207Z" fill="#AED7A0"/>
<rect x="134.929" y="75.6658" width="117.028" height="187.933" rx="21" transform="rotate(-45 134.929 75.6658)" fill="white" stroke="white" stroke-width="10"/>
<mask id="path-3-outside-1_9_638" maskUnits="userSpaceOnUse" x="127.858" y="-63.6343" width="344.361" height="344.361" fill="black">
<rect fill="white" x="127.858" y="-63.6343" width="344.361" height="344.361"/>
<path d="M156.325 61.3408L212.108 5.55765C216.047 1.61894 221.237 -0.359057 226.42 -0.366918C231.6 -0.371003 236.784 1.58373 240.715 5.51426L303.915 68.715C313.972 64.3527 323.081 66.8439 332.069 69.3052C338.237 70.9985 344.337 72.6618 349.842 71.2634C355.397 69.8461 360.838 69.1598 365.997 69.8602C371.534 70.6127 376.574 72.9067 380.839 77.4734C396.526 94.2842 405.346 100.411 420.646 111.041C425.576 114.461 431.168 118.34 437.693 123.062C442.394 125.213 444.366 129.493 444.312 135.008C444.272 138.967 443.056 143.674 441.059 148.567C439.157 153.229 436.558 158.1 433.621 162.663C425.099 175.886 412.941 187.036 404.818 185.259C404.408 185.166 404.02 185.027 403.662 184.85C402.691 184.385 401.471 183.837 400.063 183.221L396.265 181.596C388.843 182.308 381.071 182.851 373.315 182.61C365.861 182.376 358.509 181.408 351.653 179.17C347.5 182.299 345.896 184.603 343.065 188.66C341.838 190.421 340.429 192.446 339.018 194.355C334.639 200.268 328.233 201.445 322.476 199.77C320.07 199.07 317.778 197.834 315.844 196.224C313.858 194.57 312.222 192.519 311.182 190.242L310.991 189.764C310.799 189.308 310.631 188.845 310.484 188.382L296.925 201.941C292.983 205.884 287.796 207.858 282.613 207.866C277.433 207.877 272.246 205.911 268.319 201.985L156.282 89.9473C152.351 86.0168 150.393 80.8364 150.4 75.653C150.408 70.4697 152.382 65.2833 156.325 61.3408ZM342.608 107.407L356.613 107.386C359.71 107.374 362.226 109.875 362.233 112.968C362.236 116.064 359.723 118.592 356.63 118.6L340.236 118.633C332.487 119.289 324.518 120.224 316.38 121.381C307.661 122.63 298.599 124.154 289.266 125.897C284.785 126.737 282.239 128.831 281.26 131.24C280.829 132.303 280.684 133.478 280.807 134.642C280.937 135.859 281.349 137.041 282.007 138.076C283.473 140.386 286.212 142.062 289.919 141.996C299.804 141.831 308.716 141.938 317.538 142.587C325.587 143.182 333.568 144.236 342.15 145.952C343.457 145.758 344.821 146.072 345.946 146.91C346.412 147.151 346.853 147.455 347.248 147.85C347.402 148.004 347.548 148.174 347.688 148.343C353.568 153.137 358.528 156.271 363.63 158.158C369.134 160.199 375.096 160.902 382.86 160.796C385.674 160.75 387.987 163.003 388.024 165.825C388.058 168.642 385.798 170.962 382.984 171.008C373.962 171.131 366.877 170.256 360.051 167.724C354.626 165.717 349.534 162.73 343.932 158.448L321.717 180.993C320.114 182.619 319.855 184.315 320.377 185.711L320.497 185.96C320.914 186.867 321.579 187.698 322.392 188.375C323.265 189.105 324.3 189.664 325.373 189.975C327.293 190.53 329.411 190.165 330.826 188.253C332.623 185.832 333.737 184.222 334.699 182.846C338.686 177.121 340.687 174.248 347.976 169.26C349.318 168.347 351.067 168.081 352.689 168.7C359.146 171.172 366.317 172.194 373.67 172.423C381.098 172.661 388.832 172.08 396.247 171.346C397.177 171.19 398.16 171.283 399.09 171.677L404.176 173.85L407.474 175.337C411.233 175.391 418.765 166.852 425.025 157.131C427.691 152.998 429.996 148.7 431.618 144.731C433.141 140.996 434.066 137.574 434.096 134.941C434.109 133.558 433.877 132.594 433.324 132.298C432.902 132.14 432.5 131.926 432.127 131.651C425.301 126.712 419.717 122.833 414.806 119.416C398.934 108.395 389.782 102.036 373.389 84.4724C370.865 81.7678 367.876 80.4087 364.592 79.9616C360.927 79.4662 356.741 80.0338 352.321 81.1593C344.208 83.2246 336.812 81.2016 329.338 79.1524C323.603 77.5828 317.801 75.9981 312.119 76.9184L342.608 107.407ZM241.829 105.202C244.082 105.003 246.069 106.672 246.257 108.928C246.453 111.184 244.774 113.172 242.521 113.372C239.247 113.659 235.978 113.219 232.974 112.132C229.936 111.032 227.158 109.289 224.841 106.972C222.284 104.414 220.42 101.29 219.363 97.9319C218.313 94.5884 218.066 90.9611 218.704 87.3589C219.1 85.1283 221.234 83.6409 223.463 84.0368C225.689 84.4289 227.174 86.555 226.775 88.7819C226.38 91.0126 226.546 93.3064 227.217 95.4413C227.884 97.5498 229.056 99.5219 230.674 101.139C232.144 102.61 233.906 103.722 235.807 104.416C237.704 105.107 239.768 105.382 241.829 105.202ZM240.454 75.5391C238.201 75.7384 236.215 74.0688 236.018 71.8127C235.826 69.5604 237.509 67.5688 239.762 67.3695C243.032 67.0858 246.301 67.5254 249.306 68.6132C252.348 69.7086 255.125 71.4523 257.442 73.7692C260 76.3269 261.863 79.4506 262.917 82.813C263.966 86.1564 264.213 89.7837 263.579 93.3821C263.176 95.6128 261.046 97.104 258.816 96.708C256.59 96.3159 255.106 94.1898 255.505 91.9629C255.903 89.7285 255.734 87.4384 255.066 85.2998C254.399 83.1913 253.227 81.2191 251.609 79.6018C250.139 78.1311 248.374 77.0226 246.472 76.3285C244.579 75.6345 242.511 75.3627 240.454 75.5391ZM243.21 121.379C245.47 121.18 247.464 122.849 247.66 125.105C247.86 127.365 246.185 129.364 243.924 129.571C238.266 130.069 232.62 129.306 227.387 127.408C222.146 125.509 217.329 122.488 213.327 118.486C208.892 114.052 205.68 108.658 203.854 102.841C202.032 97.0428 201.593 90.7639 202.703 84.5617C203.105 82.3311 205.236 80.8474 207.465 81.2358C209.695 81.6317 211.172 83.7578 210.777 85.9885C209.911 90.8266 210.265 95.7608 211.708 100.351C213.14 104.922 215.665 109.159 219.159 112.654C222.338 115.832 226.112 118.211 230.201 119.696C234.297 121.182 238.745 121.774 243.21 121.379ZM239.073 59.362C236.809 59.5651 234.815 57.8956 234.619 55.6394C234.419 53.3795 236.098 51.3767 238.355 51.1737C244.014 50.6754 249.663 51.4353 254.896 53.3334C260.133 55.2353 264.951 58.2567 268.953 62.2587C273.387 66.6932 276.603 72.0827 278.425 77.9037C280.251 83.6983 280.69 89.9772 279.577 96.1831C279.178 98.41 277.043 99.8974 274.814 99.509C272.585 99.1131 271.107 96.987 271.502 94.7563C272.372 89.9144 272.018 84.9802 270.571 80.3942C269.143 75.8195 266.61 71.5817 263.12 68.0913C259.942 64.913 256.167 62.5342 252.078 61.0487C247.982 59.5632 243.538 58.9672 239.073 59.362ZM236.164 95.3486C233.422 92.6066 233.428 88.154 236.175 85.4075C238.925 82.6572 243.378 82.6505 246.12 85.3924C248.862 88.1344 248.855 92.587 246.105 95.3373C243.358 98.0838 238.905 98.0906 236.164 95.3486ZM330.053 109.363L299.263 78.5727L233.46 12.7692C231.526 10.8359 228.959 9.86788 226.405 9.87176C223.843 9.87564 221.28 10.8514 219.341 12.7906L163.558 68.5738C161.619 70.5129 160.639 73.0797 160.639 75.6375C160.631 78.1953 161.603 80.7591 163.536 82.6924L275.574 194.73C277.511 196.667 280.067 197.631 282.629 197.627C285.183 197.623 287.753 196.647 289.692 194.708L330.162 154.238C325.635 153.582 321.195 153.103 316.731 152.775L316.558 152.76C316.293 156.019 314.921 159.196 312.442 161.675C309.673 164.444 306.028 165.832 302.393 165.841C298.743 165.858 295.11 164.474 292.338 161.702C289.697 159.061 288.316 155.635 288.201 152.17C281.474 151.728 276.356 148.24 273.399 143.577C271.88 141.191 270.943 138.496 270.653 135.761C270.36 132.978 270.722 130.103 271.818 127.404C274.015 122.003 279.051 117.426 287.442 115.857C296.795 114.11 305.981 112.567 314.952 111.284C320.095 110.549 325.133 109.905 330.053 109.363ZM309.759 152.375C305.009 152.175 300.146 152.118 295.031 152.148C295.149 153.873 295.862 155.552 297.174 156.865C298.615 158.306 300.505 159.026 302.392 159.027C304.279 159.028 306.172 158.302 307.62 156.853C308.877 155.597 309.587 154.006 309.759 152.375Z"/>
</mask>
<path d="M156.325 61.3408L212.108 5.55765C216.047 1.61894 221.237 -0.359057 226.42 -0.366918C231.6 -0.371003 236.784 1.58373 240.715 5.51426L303.915 68.715C313.972 64.3527 323.081 66.8439 332.069 69.3052C338.237 70.9985 344.337 72.6618 349.842 71.2634C355.397 69.8461 360.838 69.1598 365.997 69.8602C371.534 70.6127 376.574 72.9067 380.839 77.4734C396.526 94.2842 405.346 100.411 420.646 111.041C425.576 114.461 431.168 118.34 437.693 123.062C442.394 125.213 444.366 129.493 444.312 135.008C444.272 138.967 443.056 143.674 441.059 148.567C439.157 153.229 436.558 158.1 433.621 162.663C425.099 175.886 412.941 187.036 404.818 185.259C404.408 185.166 404.02 185.027 403.662 184.85C402.691 184.385 401.471 183.837 400.063 183.221L396.265 181.596C388.843 182.308 381.071 182.851 373.315 182.61C365.861 182.376 358.509 181.408 351.653 179.17C347.5 182.299 345.896 184.603 343.065 188.66C341.838 190.421 340.429 192.446 339.018 194.355C334.639 200.268 328.233 201.445 322.476 199.77C320.07 199.07 317.778 197.834 315.844 196.224C313.858 194.57 312.222 192.519 311.182 190.242L310.991 189.764C310.799 189.308 310.631 188.845 310.484 188.382L296.925 201.941C292.983 205.884 287.796 207.858 282.613 207.866C277.433 207.877 272.246 205.911 268.319 201.985L156.282 89.9473C152.351 86.0168 150.393 80.8364 150.4 75.653C150.408 70.4697 152.382 65.2833 156.325 61.3408ZM342.608 107.407L356.613 107.386C359.71 107.374 362.226 109.875 362.233 112.968C362.236 116.064 359.723 118.592 356.63 118.6L340.236 118.633C332.487 119.289 324.518 120.224 316.38 121.381C307.661 122.63 298.599 124.154 289.266 125.897C284.785 126.737 282.239 128.831 281.26 131.24C280.829 132.303 280.684 133.478 280.807 134.642C280.937 135.859 281.349 137.041 282.007 138.076C283.473 140.386 286.212 142.062 289.919 141.996C299.804 141.831 308.716 141.938 317.538 142.587C325.587 143.182 333.568 144.236 342.15 145.952C343.457 145.758 344.821 146.072 345.946 146.91C346.412 147.151 346.853 147.455 347.248 147.85C347.402 148.004 347.548 148.174 347.688 148.343C353.568 153.137 358.528 156.271 363.63 158.158C369.134 160.199 375.096 160.902 382.86 160.796C385.674 160.75 387.987 163.003 388.024 165.825C388.058 168.642 385.798 170.962 382.984 171.008C373.962 171.131 366.877 170.256 360.051 167.724C354.626 165.717 349.534 162.73 343.932 158.448L321.717 180.993C320.114 182.619 319.855 184.315 320.377 185.711L320.497 185.96C320.914 186.867 321.579 187.698 322.392 188.375C323.265 189.105 324.3 189.664 325.373 189.975C327.293 190.53 329.411 190.165 330.826 188.253C332.623 185.832 333.737 184.222 334.699 182.846C338.686 177.121 340.687 174.248 347.976 169.26C349.318 168.347 351.067 168.081 352.689 168.7C359.146 171.172 366.317 172.194 373.67 172.423C381.098 172.661 388.832 172.08 396.247 171.346C397.177 171.19 398.16 171.283 399.09 171.677L404.176 173.85L407.474 175.337C411.233 175.391 418.765 166.852 425.025 157.131C427.691 152.998 429.996 148.7 431.618 144.731C433.141 140.996 434.066 137.574 434.096 134.941C434.109 133.558 433.877 132.594 433.324 132.298C432.902 132.14 432.5 131.926 432.127 131.651C425.301 126.712 419.717 122.833 414.806 119.416C398.934 108.395 389.782 102.036 373.389 84.4724C370.865 81.7678 367.876 80.4087 364.592 79.9616C360.927 79.4662 356.741 80.0338 352.321 81.1593C344.208 83.2246 336.812 81.2016 329.338 79.1524C323.603 77.5828 317.801 75.9981 312.119 76.9184L342.608 107.407ZM241.829 105.202C244.082 105.003 246.069 106.672 246.257 108.928C246.453 111.184 244.774 113.172 242.521 113.372C239.247 113.659 235.978 113.219 232.974 112.132C229.936 111.032 227.158 109.289 224.841 106.972C222.284 104.414 220.42 101.29 219.363 97.9319C218.313 94.5884 218.066 90.9611 218.704 87.3589C219.1 85.1283 221.234 83.6409 223.463 84.0368C225.689 84.4289 227.174 86.555 226.775 88.7819C226.38 91.0126 226.546 93.3064 227.217 95.4413C227.884 97.5498 229.056 99.5219 230.674 101.139C232.144 102.61 233.906 103.722 235.807 104.416C237.704 105.107 239.768 105.382 241.829 105.202ZM240.454 75.5391C238.201 75.7384 236.215 74.0688 236.018 71.8127C235.826 69.5604 237.509 67.5688 239.762 67.3695C243.032 67.0858 246.301 67.5254 249.306 68.6132C252.348 69.7086 255.125 71.4523 257.442 73.7692C260 76.3269 261.863 79.4506 262.917 82.813C263.966 86.1564 264.213 89.7837 263.579 93.3821C263.176 95.6128 261.046 97.104 258.816 96.708C256.59 96.3159 255.106 94.1898 255.505 91.9629C255.903 89.7285 255.734 87.4384 255.066 85.2998C254.399 83.1913 253.227 81.2191 251.609 79.6018C250.139 78.1311 248.374 77.0226 246.472 76.3285C244.579 75.6345 242.511 75.3627 240.454 75.5391ZM243.21 121.379C245.47 121.18 247.464 122.849 247.66 125.105C247.86 127.365 246.185 129.364 243.924 129.571C238.266 130.069 232.62 129.306 227.387 127.408C222.146 125.509 217.329 122.488 213.327 118.486C208.892 114.052 205.68 108.658 203.854 102.841C202.032 97.0428 201.593 90.7639 202.703 84.5617C203.105 82.3311 205.236 80.8474 207.465 81.2358C209.695 81.6317 211.172 83.7578 210.777 85.9885C209.911 90.8266 210.265 95.7608 211.708 100.351C213.14 104.922 215.665 109.159 219.159 112.654C222.338 115.832 226.112 118.211 230.201 119.696C234.297 121.182 238.745 121.774 243.21 121.379ZM239.073 59.362C236.809 59.5651 234.815 57.8956 234.619 55.6394C234.419 53.3795 236.098 51.3767 238.355 51.1737C244.014 50.6754 249.663 51.4353 254.896 53.3334C260.133 55.2353 264.951 58.2567 268.953 62.2587C273.387 66.6932 276.603 72.0827 278.425 77.9037C280.251 83.6983 280.69 89.9772 279.577 96.1831C279.178 98.41 277.043 99.8974 274.814 99.509C272.585 99.1131 271.107 96.987 271.502 94.7563C272.372 89.9144 272.018 84.9802 270.571 80.3942C269.143 75.8195 266.61 71.5817 263.12 68.0913C259.942 64.913 256.167 62.5342 252.078 61.0487C247.982 59.5632 243.538 58.9672 239.073 59.362ZM236.164 95.3486C233.422 92.6066 233.428 88.154 236.175 85.4075C238.925 82.6572 243.378 82.6505 246.12 85.3924C248.862 88.1344 248.855 92.587 246.105 95.3373C243.358 98.0838 238.905 98.0906 236.164 95.3486ZM330.053 109.363L299.263 78.5727L233.46 12.7692C231.526 10.8359 228.959 9.86788 226.405 9.87176C223.843 9.87564 221.28 10.8514 219.341 12.7906L163.558 68.5738C161.619 70.5129 160.639 73.0797 160.639 75.6375C160.631 78.1953 161.603 80.7591 163.536 82.6924L275.574 194.73C277.511 196.667 280.067 197.631 282.629 197.627C285.183 197.623 287.753 196.647 289.692 194.708L330.162 154.238C325.635 153.582 321.195 153.103 316.731 152.775L316.558 152.76C316.293 156.019 314.921 159.196 312.442 161.675C309.673 164.444 306.028 165.832 302.393 165.841C298.743 165.858 295.11 164.474 292.338 161.702C289.697 159.061 288.316 155.635 288.201 152.17C281.474 151.728 276.356 148.24 273.399 143.577C271.88 141.191 270.943 138.496 270.653 135.761C270.36 132.978 270.722 130.103 271.818 127.404C274.015 122.003 279.051 117.426 287.442 115.857C296.795 114.11 305.981 112.567 314.952 111.284C320.095 110.549 325.133 109.905 330.053 109.363ZM309.759 152.375C305.009 152.175 300.146 152.118 295.031 152.148C295.149 153.873 295.862 155.552 297.174 156.865C298.615 158.306 300.505 159.026 302.392 159.027C304.279 159.028 306.172 158.302 307.62 156.853C308.877 155.597 309.587 154.006 309.759 152.375Z" fill="#AED7A0"/>
<path d="M156.325 61.3408L212.108 5.55765C216.047 1.61894 221.237 -0.359057 226.42 -0.366918C231.6 -0.371003 236.784 1.58373 240.715 5.51426L303.915 68.715C313.972 64.3527 323.081 66.8439 332.069 69.3052C338.237 70.9985 344.337 72.6618 349.842 71.2634C355.397 69.8461 360.838 69.1598 365.997 69.8602C371.534 70.6127 376.574 72.9067 380.839 77.4734C396.526 94.2842 405.346 100.411 420.646 111.041C425.576 114.461 431.168 118.34 437.693 123.062C442.394 125.213 444.366 129.493 444.312 135.008C444.272 138.967 443.056 143.674 441.059 148.567C439.157 153.229 436.558 158.1 433.621 162.663C425.099 175.886 412.941 187.036 404.818 185.259C404.408 185.166 404.02 185.027 403.662 184.85C402.691 184.385 401.471 183.837 400.063 183.221L396.265 181.596C388.843 182.308 381.071 182.851 373.315 182.61C365.861 182.376 358.509 181.408 351.653 179.17C347.5 182.299 345.896 184.603 343.065 188.66C341.838 190.421 340.429 192.446 339.018 194.355C334.639 200.268 328.233 201.445 322.476 199.77C320.07 199.07 317.778 197.834 315.844 196.224C313.858 194.57 312.222 192.519 311.182 190.242L310.991 189.764C310.799 189.308 310.631 188.845 310.484 188.382L296.925 201.941C292.983 205.884 287.796 207.858 282.613 207.866C277.433 207.877 272.246 205.911 268.319 201.985L156.282 89.9473C152.351 86.0168 150.393 80.8364 150.4 75.653C150.408 70.4697 152.382 65.2833 156.325 61.3408ZM342.608 107.407L356.613 107.386C359.71 107.374 362.226 109.875 362.233 112.968C362.236 116.064 359.723 118.592 356.63 118.6L340.236 118.633C332.487 119.289 324.518 120.224 316.38 121.381C307.661 122.63 298.599 124.154 289.266 125.897C284.785 126.737 282.239 128.831 281.26 131.24C280.829 132.303 280.684 133.478 280.807 134.642C280.937 135.859 281.349 137.041 282.007 138.076C283.473 140.386 286.212 142.062 289.919 141.996C299.804 141.831 308.716 141.938 317.538 142.587C325.587 143.182 333.568 144.236 342.15 145.952C343.457 145.758 344.821 146.072 345.946 146.91C346.412 147.151 346.853 147.455 347.248 147.85C347.402 148.004 347.548 148.174 347.688 148.343C353.568 153.137 358.528 156.271 363.63 158.158C369.134 160.199 375.096 160.902 382.86 160.796C385.674 160.75 387.987 163.003 388.024 165.825C388.058 168.642 385.798 170.962 382.984 171.008C373.962 171.131 366.877 170.256 360.051 167.724C354.626 165.717 349.534 162.73 343.932 158.448L321.717 180.993C320.114 182.619 319.855 184.315 320.377 185.711L320.497 185.96C320.914 186.867 321.579 187.698 322.392 188.375C323.265 189.105 324.3 189.664 325.373 189.975C327.293 190.53 329.411 190.165 330.826 188.253C332.623 185.832 333.737 184.222 334.699 182.846C338.686 177.121 340.687 174.248 347.976 169.26C349.318 168.347 351.067 168.081 352.689 168.7C359.146 171.172 366.317 172.194 373.67 172.423C381.098 172.661 388.832 172.08 396.247 171.346C397.177 171.19 398.16 171.283 399.09 171.677L404.176 173.85L407.474 175.337C411.233 175.391 418.765 166.852 425.025 157.131C427.691 152.998 429.996 148.7 431.618 144.731C433.141 140.996 434.066 137.574 434.096 134.941C434.109 133.558 433.877 132.594 433.324 132.298C432.902 132.14 432.5 131.926 432.127 131.651C425.301 126.712 419.717 122.833 414.806 119.416C398.934 108.395 389.782 102.036 373.389 84.4724C370.865 81.7678 367.876 80.4087 364.592 79.9616C360.927 79.4662 356.741 80.0338 352.321 81.1593C344.208 83.2246 336.812 81.2016 329.338 79.1524C323.603 77.5828 317.801 75.9981 312.119 76.9184L342.608 107.407ZM241.829 105.202C244.082 105.003 246.069 106.672 246.257 108.928C246.453 111.184 244.774 113.172 242.521 113.372C239.247 113.659 235.978 113.219 232.974 112.132C229.936 111.032 227.158 109.289 224.841 106.972C222.284 104.414 220.42 101.29 219.363 97.9319C218.313 94.5884 218.066 90.9611 218.704 87.3589C219.1 85.1283 221.234 83.6409 223.463 84.0368C225.689 84.4289 227.174 86.555 226.775 88.7819C226.38 91.0126 226.546 93.3064 227.217 95.4413C227.884 97.5498 229.056 99.5219 230.674 101.139C232.144 102.61 233.906 103.722 235.807 104.416C237.704 105.107 239.768 105.382 241.829 105.202ZM240.454 75.5391C238.201 75.7384 236.215 74.0688 236.018 71.8127C235.826 69.5604 237.509 67.5688 239.762 67.3695C243.032 67.0858 246.301 67.5254 249.306 68.6132C252.348 69.7086 255.125 71.4523 257.442 73.7692C260 76.3269 261.863 79.4506 262.917 82.813C263.966 86.1564 264.213 89.7837 263.579 93.3821C263.176 95.6128 261.046 97.104 258.816 96.708C256.59 96.3159 255.106 94.1898 255.505 91.9629C255.903 89.7285 255.734 87.4384 255.066 85.2998C254.399 83.1913 253.227 81.2191 251.609 79.6018C250.139 78.1311 248.374 77.0226 246.472 76.3285C244.579 75.6345 242.511 75.3627 240.454 75.5391ZM243.21 121.379C245.47 121.18 247.464 122.849 247.66 125.105C247.86 127.365 246.185 129.364 243.924 129.571C238.266 130.069 232.62 129.306 227.387 127.408C222.146 125.509 217.329 122.488 213.327 118.486C208.892 114.052 205.68 108.658 203.854 102.841C202.032 97.0428 201.593 90.7639 202.703 84.5617C203.105 82.3311 205.236 80.8474 207.465 81.2358C209.695 81.6317 211.172 83.7578 210.777 85.9885C209.911 90.8266 210.265 95.7608 211.708 100.351C213.14 104.922 215.665 109.159 219.159 112.654C222.338 115.832 226.112 118.211 230.201 119.696C234.297 121.182 238.745 121.774 243.21 121.379ZM239.073 59.362C236.809 59.5651 234.815 57.8956 234.619 55.6394C234.419 53.3795 236.098 51.3767 238.355 51.1737C244.014 50.6754 249.663 51.4353 254.896 53.3334C260.133 55.2353 264.951 58.2567 268.953 62.2587C273.387 66.6932 276.603 72.0827 278.425 77.9037C280.251 83.6983 280.69 89.9772 279.577 96.1831C279.178 98.41 277.043 99.8974 274.814 99.509C272.585 99.1131 271.107 96.987 271.502 94.7563C272.372 89.9144 272.018 84.9802 270.571 80.3942C269.143 75.8195 266.61 71.5817 263.12 68.0913C259.942 64.913 256.167 62.5342 252.078 61.0487C247.982 59.5632 243.538 58.9672 239.073 59.362ZM236.164 95.3486C233.422 92.6066 233.428 88.154 236.175 85.4075C238.925 82.6572 243.378 82.6505 246.12 85.3924C248.862 88.1344 248.855 92.587 246.105 95.3373C243.358 98.0838 238.905 98.0906 236.164 95.3486ZM330.053 109.363L299.263 78.5727L233.46 12.7692C231.526 10.8359 228.959 9.86788 226.405 9.87176C223.843 9.87564 221.28 10.8514 219.341 12.7906L163.558 68.5738C161.619 70.5129 160.639 73.0797 160.639 75.6375C160.631 78.1953 161.603 80.7591 163.536 82.6924L275.574 194.73C277.511 196.667 280.067 197.631 282.629 197.627C285.183 197.623 287.753 196.647 289.692 194.708L330.162 154.238C325.635 153.582 321.195 153.103 316.731 152.775L316.558 152.76C316.293 156.019 314.921 159.196 312.442 161.675C309.673 164.444 306.028 165.832 302.393 165.841C298.743 165.858 295.11 164.474 292.338 161.702C289.697 159.061 288.316 155.635 288.201 152.17C281.474 151.728 276.356 148.24 273.399 143.577C271.88 141.191 270.943 138.496 270.653 135.761C270.36 132.978 270.722 130.103 271.818 127.404C274.015 122.003 279.051 117.426 287.442 115.857C296.795 114.11 305.981 112.567 314.952 111.284C320.095 110.549 325.133 109.905 330.053 109.363ZM309.759 152.375C305.009 152.175 300.146 152.118 295.031 152.148C295.149 153.873 295.862 155.552 297.174 156.865C298.615 158.306 300.505 159.026 302.392 159.027C304.279 159.028 306.172 158.302 307.62 156.853C308.877 155.597 309.587 154.006 309.759 152.375Z" stroke="white" stroke-width="20" mask="url(#path-3-outside-1_9_638)"/>
</g>
<defs>
<clipPath id="clip0_9_638">
<rect width="375" height="410" fill="white"/>
</clipPath>
</defs>
</svg>
